<svg xmlns="http://www.w3.org/2000/svg" width="30" height="30" viewBox="0 0 30 30"><defs><style>.a{fill:none;}.b{fill:#353535;}</style></defs><rect class="a" width="30" height="30"/><path class="b" d="M20.362,8.191H18.334l-.158-.382,1.441-1.441a1.625,1.625,0,0,0,0-2.324L17.954,2.384a1.626,1.626,0,0,0-2.324,0L14.19,3.824l-.382-.158V1.638A1.621,1.621,0,0,0,12.17,0H9.83A1.621,1.621,0,0,0,8.191,1.638V3.666l-.382.158L6.369,2.384a1.625,1.625,0,0,0-2.324,0L2.384,4.046a1.625,1.625,0,0,0,0,2.324L3.824,7.81l-.158.382H1.638A1.621,1.621,0,0,0,0,9.83v2.34a1.621,1.621,0,0,0,1.638,1.638H3.666l.158.381L2.384,15.63a1.625,1.625,0,0,0,0,2.324l1.662,1.662a1.626,1.626,0,0,0,2.324,0L7.81,18.175l.382.158v2.028A1.621,1.621,0,0,0,9.83,22h2.34a1.621,1.621,0,0,0,1.638-1.638V18.334l.382-.158,1.441,1.441a1.626,1.626,0,0,0,2.324,0l1.662-1.662a1.625,1.625,0,0,0,0-2.324L16.41,12.424a.734.734,0,0,1-.187-.7l.066-.2a2.736,2.736,0,0,0,.115-1.084,5.425,5.425,0,1,0-9.342,4.3A5.365,5.365,0,0,0,11,16.43a.468.468,0,1,0,0-.936,4.473,4.473,0,0,1-4.471-4.752,4.487,4.487,0,0,1,8.942-.22,1.8,1.8,0,0,1-.071.705l-.07.211-.007.023a1.67,1.67,0,0,0,.424,1.626l3.206,3.206a.691.691,0,0,1,0,1l-1.662,1.662a.691.691,0,0,1-1,0l-1.662-1.662a.468.468,0,0,0-.51-.1l-.96.4a.468.468,0,0,0-.289.433v2.34a.694.694,0,0,1-.7.7H9.83a.7.7,0,0,1-.7-.7v-2.34a.468.468,0,0,0-.289-.433l-.96-.4a.468.468,0,0,0-.51.1L5.707,18.954a.692.692,0,0,1-1,0L3.046,17.292a.691.691,0,0,1,0-1l1.662-1.662a.468.468,0,0,0,.1-.51l-.4-.96a.468.468,0,0,0-.433-.289H1.638a.7.7,0,0,1-.7-.7V9.83a.7.7,0,0,1,.7-.7h2.34a.469.469,0,0,0,.433-.289l.4-.96a.469.469,0,0,0-.1-.51L3.046,5.707a.691.691,0,0,1,0-1L4.708,3.046a.691.691,0,0,1,1,0L7.369,4.708a.468.468,0,0,0,.51.1l.96-.4a.468.468,0,0,0,.289-.433V1.638a.7.7,0,0,1,.7-.7h2.34a.7.7,0,0,1,.7.7v2.34a.469.469,0,0,0,.289.433l.96.4a.469.469,0,0,0,.51-.1l1.662-1.662a.691.691,0,0,1,1,0l1.662,1.662a.691.691,0,0,1,0,1L17.292,7.369a.468.468,0,0,0-.1.51l.4.96a.468.468,0,0,0,.433.289h2.34a.7.7,0,0,1,.7.7v2.34a.694.694,0,0,1-.7.7.468.468,0,1,0,0,.936A1.621,1.621,0,0,0,22,12.17V9.83A1.621,1.621,0,0,0,20.362,8.191Z" transform="translate(4 4)"/></svg>