<svg xmlns="http://www.w3.org/2000/svg" width="30" height="30" viewBox="0 0 30 30"><defs><style>.a{fill:none;}.b{fill:#353535;}</style></defs><rect class="a" width="30" height="30"/><path class="b" d="M4.547,56.165a.433.433,0,1,1-.433-.433A.433.433,0,0,1,4.547,56.165Zm-2.382-.433a.433.433,0,1,0,.433.433A.433.433,0,0,0,2.165,55.732ZM22,55.3V70.89a.433.433,0,0,1-.433.433H12.949a.434.434,0,0,1-.432-.463.443.443,0,0,1,.448-.4H14.7l-3.387-3.166a1.057,1.057,0,0,0-1.439,0L8.232,68.82a.434.434,0,0,1-.634-.046l-3.522-4.4L.866,68.385v2.072H9.052a.434.434,0,0,1,.432.463.443.443,0,0,1-.447.4H.433A.433.433,0,0,1,0,70.89V55.3A1.3,1.3,0,0,1,1.3,54H20.7A1.3,1.3,0,0,1,22,55.3ZM11.4,64.492a3.274,3.274,0,0,1,2.128-2.117l4.051-4.044H.866V67L3.4,63.831a.866.866,0,0,1,1.353,0l3.23,4.037,1.295-1.21a1.921,1.921,0,0,1,1.593-.495c.183-.579.42-1.322.529-1.671Zm5.473-2.26,2.442-2.438a7.659,7.659,0,0,0,1.78-2.767,7.659,7.659,0,0,0-2.767,1.78l-2.442,2.438Zm-1.6-.375-.9.9.987.987.9-.9ZM11.7,66.416c.577-.183,1.315-.42,1.663-.527a2.4,2.4,0,0,0,1.5-1.413l-1.222-1.222a2.38,2.38,0,0,0-1.413,1.5c-.105.348-.344,1.085-.527,1.663ZM21.134,58.9a8.6,8.6,0,0,1-1.206,1.51L15.74,64.587a3.283,3.283,0,0,1-2.117,2.127c-.267.081-.764.242-1.242.393l3.582,3.349h5.17Zm0-3.6a.434.434,0,0,0-.433-.433H1.3a.434.434,0,0,0-.433.433v2.165H18.544a7.918,7.918,0,0,1,2.59-1.34ZM10.48,61.8A1.992,1.992,0,1,1,8.488,59.8,1.994,1.994,0,0,1,10.48,61.8Zm-.866,0a1.126,1.126,0,1,0-1.126,1.126A1.127,1.127,0,0,0,9.614,61.8ZM6.063,55.732a.433.433,0,1,0,.433.433A.433.433,0,0,0,6.063,55.732Zm5.37,15.157A.433.433,0,1,1,11,70.457.434.434,0,0,1,11.433,70.89Z" transform="translate(4 -48)"/></svg>