<svg xmlns="http://www.w3.org/2000/svg" width="30" height="30" viewBox="0 0 30 30"><defs><style>.a,.b,.c{fill:none;}.b,.c{stroke:#353535;stroke-linecap:round;stroke-linejoin:round;}.c{stroke-dasharray:2;}</style></defs><rect class="a" width="30" height="30"/><g transform="translate(4 5)"><g transform="translate(0.607 4.288)"><circle class="b" cx="1.922" cy="1.922" r="1.922" transform="translate(1.215)"/><path class="b" d="M746.688,56.465h0a1.283,1.283,0,0,1,1.546.937l1.211,4.938a1.281,1.281,0,0,1-.937,1.545h0a1.281,1.281,0,0,1-1.545-.936l-.995-4.058h-4.047a1.188,1.188,0,0,1-1.149-1.492l1.35-5.118a1.139,1.139,0,0,1,2.121-.218l.873,1.748h1.837a1.282,1.282,0,0,1,1.278,1.278v.073a1.282,1.282,0,0,1-1.278,1.278h-2.522a1.282,1.282,0,0,1-1.177-.782" transform="translate(-740.732 -47.637)"/><path class="b" d="M742.035,58.891l-.632,2.522-.671,2.678" transform="translate(-740.732 -47.637)"/><line class="b" x1="5.067" transform="translate(0.764 13.68)"/></g><g transform="translate(11.926 4.288)"><circle class="b" cx="1.922" cy="1.922" r="1.922" transform="translate(3.691)"/><path class="b" d="M754.845,56.465h0a1.282,1.282,0,0,0-1.546.937l-1.211,4.938a1.281,1.281,0,0,0,.937,1.545h0a1.281,1.281,0,0,0,1.545-.936l1-4.058h4.046a1.188,1.188,0,0,0,1.149-1.492l-1.35-5.118a1.139,1.139,0,0,0-2.121-.218l-.873,1.748h-1.836a1.282,1.282,0,0,0-1.278,1.278v.073a1.282,1.282,0,0,0,1.278,1.278H757.1a1.284,1.284,0,0,0,1.177-.782" transform="translate(-752.051 -47.637)"/><path class="b" d="M759.5,58.891l.632,2.522.671,2.678" transform="translate(-752.051 -47.637)"/><line class="b" x2="5.067" transform="translate(2.919 13.68)"/></g><line class="b" x1="5.907" transform="translate(7.688 12.755)"/><path class="b" d="M741.148,55.973a1.674,1.674,0,0,1-1.023-1.542V44.34a.991.991,0,0,1,.991-.991h19.311a.991.991,0,0,1,.99.991V54.431a1.674,1.674,0,0,1-1.022,1.542" transform="translate(-740.125 -43.349)"/><line class="b" x2="21.292" transform="translate(0 1.853)"/><line class="c" x2="7.2" transform="translate(6.806 8.371)"/></g></svg>